<?xml version="1.0" standalone="no"?>
<!DOCTYPE svg PUBLIC "-//W3C//DTD SVG 20010904//EN"
 "http://www.w3.org/TR/2001/REC-SVG-20010904/DTD/svg10.dtd">
<svg version="1.0" xmlns="http://www.w3.org/2000/svg"
 width="500.000000pt" height="500.000000pt" viewBox="0 0 500.000000 500.000000"
 preserveAspectRatio="xMidYMid meet">

<g transform="translate(0.000000,500.000000) scale(0.100000,-0.100000)"
fill="#ffffff" stroke="none">
<path d="M1155 3579 c-670 -53 -1098 -587 -1044 -1302 43 -575 389 -968 939
-1068 108 -20 373 -17 482 4 356 71 625 269 774 572 29 61 64 149 78 198 l24
87 -354 0 -354 0 -40 -64 c-45 -70 -103 -123 -177 -160 -76 -38 -133 -49 -246
-44 -96 3 -110 6 -179 41 -129 63 -217 177 -259 334 -28 102 -31 305 -6 405
35 141 115 261 220 329 128 83 335 91 477 19 56 -29 153 -122 181 -175 l24
-45 354 0 353 0 -7 38 c-10 55 -58 189 -90 252 -86 171 -238 331 -407 431
-193 114 -474 170 -743 148z"/>
<path d="M2540 3556 c0 -2 185 -362 410 -799 l410 -795 0 -376 0 -376 335 0
335 0 0 376 0 377 408 790 c224 434 409 794 410 799 2 4 -160 7 -368 6 l-372
-3 -202 -442 c-110 -244 -203 -443 -206 -443 -3 0 -95 199 -206 443 l-201 442
-377 3 c-207 1 -376 0 -376 -2z"/>
</g>
</svg>
